<?xml version="1.0" encoding="utf-8"?>
<!-- Generator: Adobe Illustrator 27.5.0, SVG Export Plug-In . SVG Version: 6.00 Build 0)  -->
<svg version="1.1" xmlns="http://www.w3.org/2000/svg" xmlns:xlink="http://www.w3.org/1999/xlink" x="0px" y="0px"
	 viewBox="0 0 750 500" style="enable-background:new 0 0 750 500;" xml:space="preserve">
<g id="Background_Simple">
	<g>
		<path style="fill:#92E3A9;" d="M689.243,249.841c-20.649-42.596-46.112-81.71-75.537-116.217
			c-31.751-37.236-64.118-62.408-105.874-78.699c-28.27-11.03-57.758-17.341-87.379-18.514
			c-55.082-2.181-100.517,13.181-145.767,51.94c-48.512,41.553-93.769,88.578-141.044,132.217
			c-4.934,4.555-9.888,9.077-14.868,13.555C36.325,308.255-3.723,439.937,52.029,472.126h641.539c0,0,58.355-3.613,43.973-77.06
			C727.475,343.656,711.041,294.808,689.243,249.841z"/>
		<path style="opacity:0.7;fill:#FFFFFF;" d="M689.243,249.841c-20.649-42.596-46.112-81.71-75.537-116.217
			c-31.751-37.236-64.118-62.408-105.874-78.699c-28.27-11.03-57.758-17.341-87.379-18.514
			c-55.082-2.181-100.517,13.181-145.767,51.94c-48.512,41.553-93.769,88.578-141.044,132.217
			c-4.934,4.555-9.888,9.077-14.868,13.555C36.325,308.255-3.723,439.937,52.029,472.126h641.539c0,0,58.355-3.613,43.973-77.06
			C727.475,343.656,711.041,294.808,689.243,249.841z"/>
	</g>
</g>
<g id="Sun">
	<g>
		<circle style="fill:#92E3A9;" cx="104.201" cy="67.425" r="41.889"/>
		<circle style="opacity:0.73;fill:#FFFFFF;" cx="104.201" cy="67.425" r="41.889"/>
		<circle style="fill:#92E3A9;" cx="104.201" cy="67.425" r="29.096"/>
	</g>
</g>
<g id="Clouds">
	<g style="opacity:0.3;">
		<path style="fill:none;stroke:#000000;stroke-linecap:round;stroke-linejoin:round;stroke-miterlimit:10;" d="M644.093,46.119
			c-8.443-0.217-16.16-4.687-20.437-11.971c-2.594-4.418-7.813-11.752-20.052-13.112c-31.136-3.46-37.548,20.508-44.71,21.941
			c-7.163,1.432-15.042-10.744-23.637-7.879c-8.595,2.865-14.325,10.744-17.906,12.176c-3.581,1.433-12.893-4.298-17.19-2.865
			c-4.298,1.433-7.879,4.298-9.311,6.446c-1.432,2.149-10.744-5.014-19.339-2.149c-8.595,2.865-14.325,6.446-17.19,7.879
			c-2.865,1.433-17.907,3.581-17.907,3.581H664.9c0,0-4.053-9.866-10.164-12.749C651.026,45.668,646.09,46.17,644.093,46.119z"/>
		<path style="fill:none;stroke:#000000;stroke-linecap:round;stroke-linejoin:round;stroke-miterlimit:10;" d="M517.939,94.204
			c-4.855-0.125-9.292-2.695-11.751-6.882c-1.492-2.54-4.492-6.757-11.529-7.539c-17.902-1.989-21.588,11.791-25.707,12.615
			c-4.118,0.824-8.648-6.177-13.59-4.53c-4.942,1.647-8.236,6.177-10.296,7.001c-2.059,0.824-7.413-2.471-9.884-1.647
			c-2.471,0.824-4.53,2.471-5.354,3.706c-0.824,1.235-6.177-2.883-11.119-1.235c-4.942,1.647-8.236,3.706-9.884,4.53
			c-1.647,0.824-10.295,2.059-10.295,2.059h131.371c0,0-2.33-5.673-5.844-7.33C521.924,93.945,519.087,94.233,517.939,94.204z"/>
		<path style="fill:none;stroke:#000000;stroke-linecap:round;stroke-linejoin:round;stroke-miterlimit:10;" d="M304.331,51.882
			c-4.855-0.125-9.292-2.695-11.751-6.882c-1.492-2.54-4.492-6.757-11.529-7.539c-17.902-1.989-21.588,11.791-25.707,12.615
			c-4.118,0.824-8.648-6.177-13.59-4.53c-4.942,1.647-8.236,6.177-10.296,7.001c-2.059,0.824-7.413-2.471-9.884-1.647
			s-4.53,2.471-5.354,3.706c-0.824,1.235-6.177-2.883-11.119-1.236c-4.942,1.647-8.236,3.706-9.884,4.53
			c-1.647,0.824-10.295,2.059-10.295,2.059h131.371c0,0-2.33-5.673-5.844-7.33C308.316,51.622,305.479,51.911,304.331,51.882z"/>
	</g>
</g>
<g id="Trees">
	<g>
		<path style="fill:#92E3A9;" d="M718.874,266.093c0,48.414-28.64,87.662-63.969,87.662c-35.329,0-63.969-39.247-63.969-87.662
			c0-48.414,28.64-214.81,63.969-214.81C690.234,51.282,718.874,217.678,718.874,266.093z"/>
		<path style="opacity:0.5;fill:#FFFFFF;" d="M718.874,266.093c0,48.414-28.64,87.662-63.969,87.662
			c-35.329,0-63.969-39.247-63.969-87.662c0-48.414,28.64-214.81,63.969-214.81C690.234,51.282,718.874,217.678,718.874,266.093z"/>
		<polygon style="fill:#B2B2B2;" points="690.773,291.422 671.403,298.586 675.29,286.927 666.029,300.573 656.784,303.993 
			656.124,265.705 689.774,220.997 671.74,239.031 674.79,226.492 666.163,244.608 655.936,254.835 654.905,195.016 
			651.239,282.261 619.35,248.468 636.867,272.28 620.349,270.444 640.752,277.562 650.859,291.301 649.092,333.366 
			637.331,325.385 648.726,342.071 643.324,470.636 659.657,470.636 656.889,310.101 		"/>
		<g>
			<path style="fill:#FFFFFF;" d="M690.097,195.205c0,0,0.592,5.877-2.621,10.191c-3.212,4.314-9.012,5.432-9.012,5.432
				s-0.592-5.877,2.621-10.191C684.297,196.323,690.097,195.205,690.097,195.205z"/>
			<path style="fill:#FFFFFF;" d="M709.377,222.294c0,0,0.592,5.877-2.621,10.191c-3.212,4.314-9.012,5.432-9.012,5.432
				s-0.592-5.877,2.621-10.191C703.577,223.412,709.377,222.294,709.377,222.294z"/>
			<path style="fill:#FFFFFF;" d="M709.369,275.036c0,0-1.421,5.733-5.899,8.714c-4.477,2.981-10.315,2.082-10.315,2.082
				s1.421-5.733,5.898-8.714C703.531,274.136,709.369,275.036,709.369,275.036z"/>
			<path style="fill:#FFFFFF;" d="M603.483,275.036c0,0,1.421,5.733,5.898,8.714c4.477,2.981,10.315,2.082,10.315,2.082
				s-1.421-5.733-5.898-8.714C609.32,274.136,603.483,275.036,603.483,275.036z"/>
			<path style="fill:#FFFFFF;" d="M687.1,253.143c0,0,0.592,5.877-2.621,10.192c-3.212,4.314-9.012,5.432-9.012,5.432
				s-0.592-5.877,2.621-10.191C681.3,254.26,687.1,253.143,687.1,253.143z"/>
			<path style="fill:#FFFFFF;" d="M682.105,165.737c0,0,0.592,5.877-2.621,10.191c-3.212,4.315-9.012,5.432-9.012,5.432
				s-0.592-5.877,2.621-10.191C676.305,166.855,682.105,165.737,682.105,165.737z"/>
			<path style="fill:#FFFFFF;" d="M670.618,188.212c0,0,0.592,5.877-2.621,10.191c-3.213,4.314-9.013,5.432-9.013,5.432
				s-0.592-5.877,2.621-10.191C664.818,189.331,670.618,188.212,670.618,188.212z"/>
			<path style="fill:#FFFFFF;" d="M697.889,171.848c0,0,0.592,5.877-2.621,10.191c-3.212,4.314-9.012,5.432-9.012,5.432
				s-0.592-5.877,2.621-10.191C692.089,172.966,697.889,171.848,697.889,171.848z"/>
			<path style="fill:#FFFFFF;" d="M609.27,171.848c0,0-0.592,5.877,2.621,10.191c3.212,4.314,9.012,5.432,9.012,5.432
				s0.592-5.877-2.621-10.191C615.069,172.966,609.27,171.848,609.27,171.848z"/>
			<path style="fill:#FFFFFF;" d="M684.603,138.266c0,0,0.592,5.877-2.621,10.191c-3.212,4.314-9.012,5.433-9.012,5.433
				s-0.592-5.877,2.621-10.192C678.803,139.384,684.603,138.266,684.603,138.266z"/>
			<path style="fill:#FFFFFF;" d="M678.957,109.085c0,0,2.049,5.54,0.024,10.523s-7.359,7.522-7.359,7.522s-2.049-5.54-0.024-10.523
				C673.624,111.625,678.957,109.085,678.957,109.085z"/>
			<path style="fill:#FFFFFF;" d="M638.505,101.46c0,0,5.233,2.741,7.066,7.797c1.834,5.057-0.425,10.514-0.425,10.514
				s-5.232-2.741-7.066-7.797C636.246,106.918,638.505,101.46,638.505,101.46z"/>
			<path style="fill:#FFFFFF;" d="M657.369,136.355c0,0,3.727,4.582,3.419,9.952c-0.309,5.37-4.537,9.495-4.537,9.495
				s-3.727-4.582-3.419-9.952C653.141,140.479,657.369,136.355,657.369,136.355z"/>
			<path style="fill:#FFFFFF;" d="M656.37,84.411c0,0,3.727,4.582,3.418,9.952c-0.309,5.37-4.537,9.494-4.537,9.494
				s-3.727-4.582-3.418-9.952C652.142,88.535,656.37,84.411,656.37,84.411z"/>
			<path style="fill:#FFFFFF;" d="M614.033,195.205c0,0-0.592,5.877,2.621,10.191c3.212,4.314,9.012,5.432,9.012,5.432
				s0.592-5.877-2.621-10.191C619.833,196.323,614.033,195.205,614.033,195.205z"/>
			<path style="fill:#FFFFFF;" d="M603.045,227.171c0,0-0.592,5.877,2.621,10.191c3.213,4.314,9.012,5.433,9.012,5.433
				s0.592-5.877-2.621-10.192C608.845,228.288,603.045,227.171,603.045,227.171z"/>
			<path style="fill:#FFFFFF;" d="M632.213,238.776c0,0-0.592,5.877,2.621,10.191c3.212,4.314,9.012,5.432,9.012,5.432
				s0.592-5.877-2.621-10.191C638.013,239.894,632.213,238.776,632.213,238.776z"/>
			<path style="fill:#FFFFFF;" d="M640.187,194.484c0,0-2.25,5.462-0.407,10.515c1.842,5.054,7.079,7.786,7.079,7.786
				s2.25-5.461,0.408-10.515C645.424,197.216,640.187,194.484,640.187,194.484z"/>
			<path style="fill:#FFFFFF;" d="M619.533,312.344c0,0,5.906,0.108,9.942-3.447c4.036-3.555,4.675-9.427,4.675-9.427
				s-5.906-0.108-9.942,3.448C620.172,306.471,619.533,312.344,619.533,312.344z"/>
			<path style="fill:#FFFFFF;" d="M676.204,305.883c0,0,1.604,5.685,6.175,8.521c4.57,2.836,10.376,1.75,10.376,1.75
				s-1.604-5.685-6.175-8.521C682.009,304.797,676.204,305.883,676.204,305.883z"/>
			<path style="fill:#FFFFFF;" d="M626.121,165.737c0,0-0.591,5.877,2.621,10.191c3.212,4.315,9.012,5.432,9.012,5.432
				s0.592-5.877-2.621-10.191C631.922,166.855,626.121,165.737,626.121,165.737z"/>
			<path style="fill:#FFFFFF;" d="M626.02,139.765c0,0-0.592,5.877,2.621,10.191c3.212,4.314,9.012,5.432,9.012,5.432
				s0.592-5.877-2.621-10.192C631.82,140.883,626.02,139.765,626.02,139.765z"/>
		</g>
	</g>
	<g>
		<path style="fill:#92E3A9;" d="M416.971,266.093c0,48.414-28.64,87.662-63.969,87.662c-35.329,0-63.969-39.247-63.969-87.662
			c0-48.414,28.64-214.81,63.969-214.81C388.332,51.282,416.971,217.678,416.971,266.093z"/>
		<path style="opacity:0.5;fill:#FFFFFF;" d="M416.971,266.093c0,48.414-28.64,87.662-63.969,87.662
			c-35.329,0-63.969-39.247-63.969-87.662c0-48.414,28.64-214.81,63.969-214.81C388.332,51.282,416.971,217.678,416.971,266.093z"/>
		<polygon style="fill:#B2B2B2;" points="388.871,291.422 369.501,298.586 373.387,286.927 364.127,300.573 354.881,303.993 
			354.221,265.705 387.872,220.997 369.838,239.031 372.888,226.492 364.261,244.608 354.034,254.835 353.002,195.016 
			349.337,282.261 317.448,248.468 334.964,272.28 318.447,270.444 338.85,277.562 348.957,291.301 347.189,333.366 
			335.428,325.385 346.824,342.071 341.422,470.636 357.754,470.636 354.987,310.101 		"/>
		<g>
			<path style="fill:#FFFFFF;" d="M388.194,195.205c0,0,0.592,5.877-2.621,10.191c-3.212,4.314-9.012,5.432-9.012,5.432
				s-0.592-5.877,2.621-10.191C382.394,196.323,388.194,195.205,388.194,195.205z"/>
			<path style="fill:#FFFFFF;" d="M407.474,222.294c0,0,0.592,5.877-2.621,10.191c-3.212,4.314-9.012,5.432-9.012,5.432
				s-0.592-5.877,2.621-10.191C401.674,223.412,407.474,222.294,407.474,222.294z"/>
			<path style="fill:#FFFFFF;" d="M407.466,275.036c0,0-1.421,5.733-5.898,8.714c-4.477,2.981-10.315,2.082-10.315,2.082
				s1.421-5.733,5.898-8.714C401.628,274.136,407.466,275.036,407.466,275.036z"/>
			<path style="fill:#FFFFFF;" d="M301.58,275.036c0,0,1.421,5.733,5.898,8.714c4.478,2.981,10.315,2.082,10.315,2.082
				s-1.421-5.733-5.898-8.714C307.418,274.136,301.58,275.036,301.58,275.036z"/>
			<path style="fill:#FFFFFF;" d="M385.197,253.143c0,0,0.592,5.877-2.621,10.192c-3.212,4.314-9.012,5.432-9.012,5.432
				s-0.592-5.877,2.621-10.191C379.397,254.26,385.197,253.143,385.197,253.143z"/>
			<path style="fill:#FFFFFF;" d="M380.203,165.737c0,0,0.592,5.877-2.621,10.191c-3.212,4.315-9.012,5.432-9.012,5.432
				s-0.592-5.877,2.621-10.191C374.403,166.855,380.203,165.737,380.203,165.737z"/>
			<path style="fill:#FFFFFF;" d="M368.715,188.212c0,0,0.592,5.877-2.621,10.191c-3.213,4.314-9.012,5.432-9.012,5.432
				s-0.592-5.877,2.621-10.191C362.915,189.331,368.715,188.212,368.715,188.212z"/>
			<path style="fill:#FFFFFF;" d="M395.987,171.848c0,0,0.592,5.877-2.621,10.191c-3.212,4.314-9.012,5.432-9.012,5.432
				s-0.592-5.877,2.621-10.191C390.187,172.966,395.987,171.848,395.987,171.848z"/>
			<path style="fill:#FFFFFF;" d="M307.367,171.848c0,0-0.592,5.877,2.621,10.191c3.212,4.314,9.012,5.432,9.012,5.432
				s0.592-5.877-2.621-10.191C313.167,172.966,307.367,171.848,307.367,171.848z"/>
			<path style="fill:#FFFFFF;" d="M382.7,138.266c0,0,0.592,5.877-2.621,10.191c-3.212,4.314-9.012,5.433-9.012,5.433
				s-0.592-5.877,2.621-10.192C376.9,139.384,382.7,138.266,382.7,138.266z"/>
			<path style="fill:#FFFFFF;" d="M377.055,109.085c0,0,2.049,5.54,0.024,10.523c-2.026,4.983-7.358,7.522-7.358,7.522
				s-2.049-5.54-0.024-10.523C371.722,111.625,377.055,109.085,377.055,109.085z"/>
			<path style="fill:#FFFFFF;" d="M336.603,101.46c0,0,5.232,2.741,7.066,7.797c1.834,5.057-0.425,10.514-0.425,10.514
				s-5.233-2.741-7.066-7.797C334.344,106.918,336.603,101.46,336.603,101.46z"/>
			<path style="fill:#FFFFFF;" d="M355.466,136.355c0,0,3.727,4.582,3.419,9.952c-0.309,5.37-4.537,9.495-4.537,9.495
				s-3.728-4.582-3.418-9.952C351.238,140.479,355.466,136.355,355.466,136.355z"/>
			<path style="fill:#FFFFFF;" d="M354.468,84.411c0,0,3.727,4.582,3.418,9.952c-0.309,5.37-4.537,9.494-4.537,9.494
				s-3.727-4.582-3.418-9.952C350.24,88.535,354.468,84.411,354.468,84.411z"/>
			<path style="fill:#FFFFFF;" d="M312.13,195.205c0,0-0.592,5.877,2.621,10.191c3.212,4.314,9.012,5.432,9.012,5.432
				s0.592-5.877-2.621-10.191C317.93,196.323,312.13,195.205,312.13,195.205z"/>
			<path style="fill:#FFFFFF;" d="M301.142,227.171c0,0-0.592,5.877,2.621,10.191c3.213,4.314,9.012,5.433,9.012,5.433
				s0.592-5.877-2.621-10.192C306.942,228.288,301.142,227.171,301.142,227.171z"/>
			<path style="fill:#FFFFFF;" d="M330.31,238.776c0,0-0.592,5.877,2.621,10.191c3.212,4.314,9.012,5.432,9.012,5.432
				s0.592-5.877-2.621-10.191C336.11,239.894,330.31,238.776,330.31,238.776z"/>
			<path style="fill:#FFFFFF;" d="M338.285,194.484c0,0-2.25,5.462-0.407,10.515c1.842,5.054,7.079,7.786,7.079,7.786
				s2.25-5.461,0.408-10.515C343.522,197.216,338.285,194.484,338.285,194.484z"/>
			<path style="fill:#FFFFFF;" d="M317.63,312.344c0,0,5.906,0.108,9.942-3.447c4.037-3.555,4.675-9.427,4.675-9.427
				s-5.906-0.108-9.942,3.448C318.27,306.471,317.63,312.344,317.63,312.344z"/>
			<path style="fill:#FFFFFF;" d="M374.301,305.883c0,0,1.604,5.685,6.175,8.521c4.57,2.836,10.376,1.75,10.376,1.75
				s-1.604-5.685-6.175-8.521C380.107,304.797,374.301,305.883,374.301,305.883z"/>
			<path style="fill:#FFFFFF;" d="M324.219,165.737c0,0-0.591,5.877,2.621,10.191c3.212,4.315,9.012,5.432,9.012,5.432
				s0.592-5.877-2.621-10.191C330.019,166.855,324.219,165.737,324.219,165.737z"/>
			<path style="fill:#FFFFFF;" d="M324.117,139.765c0,0-0.592,5.877,2.621,10.191c3.212,4.314,9.012,5.432,9.012,5.432
				s0.592-5.877-2.621-10.192C329.917,140.883,324.117,139.765,324.117,139.765z"/>
		</g>
	</g>
	<g>
		<path style="fill:#92E3A9;" d="M115.069,316.614c0,36.456-21.566,66.009-48.169,66.009s-48.169-29.553-48.169-66.009
			S40.297,154.862,66.9,154.862S115.069,280.158,115.069,316.614z"/>
		<path style="opacity:0.5;fill:#FFFFFF;" d="M115.069,316.614c0,36.456-21.566,66.009-48.169,66.009s-48.169-29.553-48.169-66.009
			S40.297,154.862,66.9,154.862S115.069,280.158,115.069,316.614z"/>
		<polygon style="fill:#B2B2B2;" points="93.909,335.687 79.323,341.082 82.25,332.302 75.277,342.578 68.315,345.154 
			67.818,316.322 93.157,282.658 79.577,296.237 81.874,286.795 75.378,300.437 67.676,308.138 66.9,263.093 64.14,328.789 
			40.127,303.343 53.317,321.273 40.879,319.891 56.243,325.251 63.854,335.596 62.523,367.271 53.667,361.262 62.247,373.826 
			58.18,470.636 70.478,470.636 68.394,349.753 		"/>
		<g>
			<path style="fill:#FFFFFF;" d="M93.4,263.236c0,0,0.446,4.425-1.973,7.674C89.007,274.159,84.64,275,84.64,275
				s-0.446-4.425,1.973-7.674C89.032,264.078,93.4,263.236,93.4,263.236z"/>
			<path style="fill:#FFFFFF;" d="M107.918,283.634c0,0,0.445,4.425-1.974,7.674c-2.419,3.249-6.786,4.091-6.786,4.091
				s-0.445-4.425,1.974-7.674C103.55,284.476,107.918,283.634,107.918,283.634z"/>
			<path style="fill:#FFFFFF;" d="M107.911,323.348c0,0-1.07,4.317-4.442,6.562c-3.371,2.245-7.767,1.568-7.767,1.568
				s1.07-4.317,4.442-6.562C103.516,322.671,107.911,323.348,107.911,323.348z"/>
			<path style="fill:#FFFFFF;" d="M28.179,323.348c0,0,1.07,4.317,4.441,6.562c3.372,2.245,7.767,1.568,7.767,1.568
				s-1.07-4.317-4.442-6.562C32.575,322.671,28.179,323.348,28.179,323.348z"/>
			<path style="fill:#FFFFFF;" d="M91.143,306.863c0,0,0.446,4.425-1.973,7.674c-2.419,3.249-6.786,4.091-6.786,4.091
				s-0.446-4.425,1.973-7.674C86.776,307.705,91.143,306.863,91.143,306.863z"/>
			<path style="fill:#FFFFFF;" d="M87.382,241.046c0,0,0.445,4.425-1.974,7.674c-2.419,3.249-6.786,4.091-6.786,4.091
				s-0.446-4.425,1.973-7.674C83.015,241.888,87.382,241.046,87.382,241.046z"/>
			<path style="fill:#FFFFFF;" d="M78.732,257.97c0,0,0.445,4.426-1.974,7.674c-2.419,3.249-6.786,4.091-6.786,4.091
				s-0.446-4.425,1.974-7.674C74.365,258.812,78.732,257.97,78.732,257.97z"/>
			<path style="fill:#FFFFFF;" d="M99.267,245.648c0,0,0.445,4.425-1.973,7.674c-2.419,3.249-6.786,4.091-6.786,4.091
				s-0.445-4.425,1.974-7.674C94.9,246.49,99.267,245.648,99.267,245.648z"/>
			<path style="fill:#FFFFFF;" d="M32.537,245.648c0,0-0.446,4.425,1.973,7.674c2.419,3.249,6.786,4.091,6.786,4.091
				s0.445-4.425-1.973-7.674C36.904,246.49,32.537,245.648,32.537,245.648z"/>
			<path style="fill:#FFFFFF;" d="M89.262,220.361c0,0,0.446,4.425-1.973,7.674s-6.786,4.091-6.786,4.091s-0.445-4.425,1.974-7.674
				C84.895,221.202,89.262,220.361,89.262,220.361z"/>
			<path style="fill:#FFFFFF;" d="M85.012,198.387c0,0,1.543,4.172,0.018,7.924c-1.525,3.752-5.541,5.665-5.541,5.665
				s-1.543-4.172-0.018-7.924C80.996,200.3,85.012,198.387,85.012,198.387z"/>
			<path style="fill:#FFFFFF;" d="M54.551,192.646c0,0,3.94,2.064,5.321,5.872c1.381,3.808-0.32,7.917-0.32,7.917
				s-3.94-2.064-5.321-5.871C52.85,196.755,54.551,192.646,54.551,192.646z"/>
			<path style="fill:#FFFFFF;" d="M68.756,218.921c0,0,2.807,3.451,2.574,7.494c-0.233,4.044-3.416,7.15-3.416,7.15
				s-2.807-3.45-2.574-7.494C65.572,222.027,68.756,218.921,68.756,218.921z"/>
			<path style="fill:#FFFFFF;" d="M68.003,179.807c0,0,2.807,3.45,2.574,7.494c-0.233,4.044-3.416,7.149-3.416,7.149
				s-2.807-3.45-2.574-7.494C64.82,182.913,68.003,179.807,68.003,179.807z"/>
			<path style="fill:#FFFFFF;" d="M36.123,263.236c0,0-0.445,4.425,1.974,7.674c2.419,3.249,6.786,4.091,6.786,4.091
				s0.446-4.425-1.973-7.674C40.491,264.078,36.123,263.236,36.123,263.236z"/>
			<path style="fill:#FFFFFF;" d="M27.849,287.306c0,0-0.445,4.426,1.974,7.674s6.786,4.091,6.786,4.091s0.446-4.425-1.973-7.674
				C32.217,288.148,27.849,287.306,27.849,287.306z"/>
			<path style="fill:#FFFFFF;" d="M49.813,296.045c0,0-0.445,4.425,1.974,7.674c2.419,3.249,6.786,4.091,6.786,4.091
				s0.445-4.426-1.973-7.674C54.18,296.887,49.813,296.045,49.813,296.045z"/>
			<path style="fill:#FFFFFF;" d="M55.818,262.693c0,0-1.694,4.113-0.307,7.918c1.387,3.805,5.331,5.863,5.331,5.863
				s1.694-4.112,0.307-7.918C59.761,264.75,55.818,262.693,55.818,262.693z"/>
			<path style="fill:#FFFFFF;" d="M40.265,351.441c0,0,4.447,0.081,7.487-2.596c3.04-2.677,3.521-7.099,3.521-7.099
				s-4.447-0.081-7.486,2.596C40.746,347.02,40.265,351.441,40.265,351.441z"/>
			<path style="fill:#FFFFFF;" d="M82.938,346.577c0,0,1.208,4.281,4.65,6.416c3.441,2.135,7.813,1.318,7.813,1.318
				s-1.208-4.28-4.65-6.416C87.31,345.759,82.938,346.577,82.938,346.577z"/>
			<path style="fill:#FFFFFF;" d="M45.226,241.046c0,0-0.445,4.425,1.973,7.674c2.419,3.249,6.786,4.091,6.786,4.091
				s0.445-4.425-1.973-7.674C49.593,241.888,45.226,241.046,45.226,241.046z"/>
			<path style="fill:#FFFFFF;" d="M45.15,221.489c0,0-0.446,4.425,1.973,7.674s6.786,4.091,6.786,4.091s0.445-4.425-1.973-7.674
				C49.517,222.331,45.15,221.489,45.15,221.489z"/>
		</g>
	</g>
</g>
<g id="Smoke">
	<g>
		<path style="opacity:0.58;fill:#FFFFFF;" d="M166.571,212.373c0,0-12.707-7.228-4.603-22.279
			c8.104-15.051,23.155,4.631,31.26-4.631c8.104-9.262-8.104-46.311,23.155-65.993c31.26-19.682,60.204,17.367,67.151,25.471
			s48.626-3.473,68.309-15.051c19.682-11.578,38.207,10.42,49.784,20.84c11.578,10.42,12.736,10.42,38.207,3.473
			c25.471-6.947,47.469,0,56.731,16.209c9.262,16.209,15.751,43.746,32.418,12.735c7.374-13.72,25.471,2.316,20.84,13.893
			c-4.631,11.578-11.578-1.158-25.471,3.473c-13.893,4.631-19.682,12.736-34.733,8.104c-15.051-4.631-15.051-18.524-26.629-17.367
			c-11.578,1.158-9.262,13.893-40.522,20.84c-31.26,6.947-56.731-20.84-68.309-20.84c-11.578,0-6.947,27.786-48.626,27.786
			s-63.678-42.838-68.309-37.049c-4.631,5.789,3.473,25.471-13.893,28.944c-17.367,3.473-20.84-9.262-30.102-9.262
			C183.966,201.672,161.912,202.235,166.571,212.373z"/>
		<g style="opacity:0.3;">
			<ellipse style="opacity:0.58;fill:#FFFFFF;" cx="569.862" cy="198.306" rx="8.96" ry="7.581"/>
			<path style="opacity:0.58;fill:#FFFFFF;" d="M597.086,181.938c0,2.379-2.083,4.307-4.652,4.307c-2.569,0-4.652-1.929-4.652-4.307
				c0-2.379,2.083-4.307,4.652-4.307C595.003,177.63,597.086,179.559,597.086,181.938z"/>
			<path style="fill:none;stroke:#000000;stroke-linecap:round;stroke-linejoin:round;stroke-miterlimit:10;" d="M166.571,212.373
				c0,0-12.707-7.228-4.603-22.279c8.104-15.051,23.155,4.631,31.26-4.631c8.104-9.262-8.104-46.311,23.155-65.993
				c31.26-19.682,60.204,17.367,67.151,25.471s48.626-3.473,68.309-15.051c19.682-11.578,38.207,10.42,49.784,20.84
				c11.578,10.42,12.736,10.42,38.207,3.473c25.471-6.947,47.469,0,56.731,16.209c9.262,16.209,15.751,43.746,32.418,12.735
				c7.374-13.72,25.471,2.316,20.84,13.893c-4.631,11.578-11.578-1.158-25.471,3.473c-13.893,4.631-19.682,12.736-34.733,8.104
				c-15.051-4.631-15.051-18.524-26.629-17.367c-11.578,1.158-9.262,13.893-40.522,20.84c-31.26,6.947-56.731-20.84-68.309-20.84
				c-11.578,0-6.947,27.786-48.626,27.786s-63.678-42.838-68.309-37.049c-4.631,5.789,3.473,25.471-13.893,28.944
				c-17.367,3.473-20.84-9.262-30.102-9.262C183.966,201.672,161.912,202.235,166.571,212.373z"/>
			
				<ellipse style="fill:none;stroke:#000000;stroke-linecap:round;stroke-linejoin:round;stroke-miterlimit:10;" cx="569.862" cy="198.306" rx="8.96" ry="7.581"/>
			<path style="fill:none;stroke:#000000;stroke-linecap:round;stroke-linejoin:round;stroke-miterlimit:10;" d="M597.086,181.938
				c0,2.379-2.083,4.307-4.652,4.307c-2.569,0-4.652-1.929-4.652-4.307c0-2.379,2.083-4.307,4.652-4.307
				C595.003,177.63,597.086,179.559,597.086,181.938z"/>
			<path style="fill:none;stroke:#000000;stroke-linecap:round;stroke-linejoin:round;stroke-miterlimit:10;" d="M373.727,141.881
				c10.817,1.422,18.853,14.526,25.775,20.954c9.23,8.571,20.439,10.549,27.032,3.956"/>
			<path style="fill:none;stroke:#000000;stroke-linecap:round;stroke-linejoin:round;stroke-miterlimit:10;" d="M281.539,192.514
				c10.688,15.461,24.509,27.801,40.822,16.473c23.736-16.483,22.417-52.746,39.559-63.954c2.143-1.401,4.193-2.308,6.158-2.805"/>
			<path style="fill:none;stroke:#000000;stroke-linecap:round;stroke-linejoin:round;stroke-miterlimit:10;" d="M215.387,183.274
				c-0.33-7.088-0.495-15.164,4.78-23.076c10.549-15.824,37.581-9.23,48.79,11.208c2.402,4.381,5.138,9.367,8.187,14.336"/>
			<path style="fill:none;stroke:#000000;stroke-linecap:round;stroke-linejoin:round;stroke-miterlimit:10;" d="M177.682,194.75
				c2.225-0.433,4.574-0.598,6.882-0.268c9.231,1.319,17.802,13.846,27.032,5.934c3.265-2.798,3.973-6.669,3.991-11.203"/>
			<path style="fill:none;stroke:#000000;stroke-linecap:round;stroke-linejoin:round;stroke-miterlimit:10;" d="M165.443,199.757
				c0,0,2.963-1.975,7.159-3.547"/>
			<path style="fill:none;stroke:#000000;stroke-linecap:round;stroke-linejoin:round;stroke-miterlimit:10;" d="M452.18,184.929
				c5.052-4.266,10.093-6.733,16.551-3.633"/>
			<path style="fill:none;stroke:#000000;stroke-linecap:round;stroke-linejoin:round;stroke-miterlimit:10;" d="M355.987,185.252
				c0,0,9.23-23.076,23.736-15.824c14.505,7.253,21.758,36.263,43.515,34.285c10.128-0.921,17.112-7.555,23.348-13.587"/>
			<path style="fill:none;stroke:#000000;stroke-linecap:round;stroke-linejoin:round;stroke-miterlimit:10;" d="M338.864,149.014
				c5.735-4.556,8.552-7.936,8.552-7.936"/>
			<path style="fill:none;stroke:#000000;stroke-linecap:round;stroke-linejoin:round;stroke-miterlimit:10;" d="M287.417,152.945
				c0,0,9.23,18.461,29.669,9.23c6.576-2.97,12.059-6.212,16.473-9.245"/>
		</g>
	</g>
</g>
<g id="Train">
	<g>
		
			<rect x="113.887" y="390.337" style="fill:#263238;stroke:#263238;stroke-linecap:round;stroke-linejoin:round;stroke-miterlimit:10;" width="530.9" height="49.608"/>
		
			<rect x="113.887" y="390.337" style="fill:#263238;stroke:#263238;stroke-linecap:round;stroke-linejoin:round;stroke-miterlimit:10;" width="542.418" height="16.383"/>
		<g>
			<path style="fill:#263238;stroke:#263238;stroke-linecap:round;stroke-linejoin:round;stroke-miterlimit:10;" d="
				M391.899,430.932c-2.389-6.87-6.728-11.482-11.702-11.482l0,0h-7.934c-3.97,0-7.533,2.947-10.029,7.623
				c-5.001,0.227-9.017,7.293-9.017,15.996c0,8.703,4.016,15.769,9.017,15.996c2.496,4.676,6.059,7.623,10.029,7.623h7.934l0,0
				c4.973,0,9.313-4.611,11.701-11.481c1.975-2.938,3.23-7.281,3.23-12.138S393.874,433.87,391.899,430.932z"/>
			<path style="fill:#263238;stroke:#263238;stroke-linecap:round;stroke-linejoin:round;stroke-miterlimit:10;" d="
				M340.646,430.932c-2.389-6.87-6.728-11.482-11.702-11.482l0,0h-7.934c-3.97,0-7.533,2.947-10.029,7.623
				c-5.001,0.227-9.017,7.293-9.017,15.996c0,8.703,4.016,15.769,9.017,15.996c2.496,4.676,6.059,7.623,10.029,7.623h7.934l0,0
				c4.973,0,9.313-4.611,11.701-11.481c1.974-2.938,3.23-7.281,3.23-12.138S342.62,433.87,340.646,430.932z"/>
			<path style="fill:#263238;stroke:#263238;stroke-linecap:round;stroke-linejoin:round;stroke-miterlimit:10;" d="
				M512.847,455.208c1.975-2.938,3.23-7.281,3.23-12.138s-1.255-9.2-3.23-12.138c-2.389-6.87-6.728-11.482-11.701-11.482l0,0h-7.934
				c-3.97,0-7.533,2.947-10.029,7.623c-5.001,0.227-9.017,7.293-9.017,15.996c0,8.703,4.016,15.769,9.017,15.996
				c2.496,4.676,6.059,7.623,10.029,7.623h7.934l0,0C506.119,466.69,510.458,462.078,512.847,455.208z"/>
			<path style="fill:#263238;stroke:#263238;stroke-linecap:round;stroke-linejoin:round;stroke-miterlimit:10;" d="
				M461.594,430.932c-2.389-6.87-6.728-11.482-11.701-11.482l0,0h-7.934c-3.97,0-7.533,2.947-10.029,7.623
				c-5.001,0.227-9.017,7.293-9.017,15.996c0,8.703,4.016,15.769,9.017,15.996c2.496,4.676,6.059,7.623,10.029,7.623h7.934l0,0
				c4.973,0,9.313-4.612,11.701-11.482c1.974-2.938,3.23-7.281,3.23-12.138C464.823,438.213,463.568,433.87,461.594,430.932z"/>
		</g>
		<g>
			<path style="fill:#263238;stroke:#263238;stroke-linecap:round;stroke-linejoin:round;stroke-miterlimit:10;" d="
				M404.842,427.052L404.842,427.052h-5.38c-5.116,0-9.263,7.171-9.263,16.018c0,8.846,4.147,16.018,9.263,16.018h5.38
				c5.116,0,9.263-7.171,9.263-16.018C414.105,434.224,409.958,427.052,404.842,427.052z"/>
			<path style="fill:#263238;stroke:#263238;stroke-linecap:round;stroke-linejoin:round;stroke-miterlimit:10;" d="M422.904,443.07
				c0-7.927-2.26-14.936-5.725-19.22v-4.399h-7.934c-7.544,0-13.659,10.575-13.659,23.619c0,13.045,6.115,23.619,13.659,23.619
				h7.934v-4.399C420.644,458.007,422.904,450.997,422.904,443.07z"/>
			<path style="fill:#666666;stroke:#263238;stroke-linecap:round;stroke-linejoin:round;stroke-miterlimit:10;" d="
				M417.179,419.451c-7.544,0-13.659,10.575-13.659,23.619c0,13.045,6.115,23.619,13.659,23.619s13.659-10.575,13.659-23.619
				C430.838,430.026,424.723,419.451,417.179,419.451z"/>
			<path style="fill:#263238;stroke:#263238;stroke-linecap:round;stroke-linejoin:round;stroke-miterlimit:10;" d="M426.729,443.07
				c0-5.376-1.533-10.129-3.883-13.034v-2.983h-5.38c-5.116,0-9.263,7.171-9.263,16.018c0,8.846,4.147,16.018,9.263,16.018h5.38
				v-2.983C425.197,453.199,426.729,448.446,426.729,443.07z"/>
			<path style="fill:#666666;stroke:#263238;stroke-linecap:round;stroke-linejoin:round;stroke-miterlimit:10;" d="
				M422.847,427.052c-5.116,0-9.263,7.171-9.263,16.018c0,8.846,4.147,16.018,9.263,16.018c5.116,0,9.263-7.171,9.263-16.018
				C432.11,434.224,427.963,427.052,422.847,427.052z"/>
		</g>
		<g>
			
				<rect x="104.647" y="374.308" style="fill:#263238;stroke:#263238;stroke-linecap:round;stroke-linejoin:round;stroke-miterlimit:10;" width="18.647" height="15.402"/>
			
				<rect x="118.012" y="374.308" style="fill:#263238;stroke:#263238;stroke-linecap:round;stroke-linejoin:round;stroke-miterlimit:10;" width="18.647" height="15.402"/>
		</g>
		<g>
			<path style="fill:#263238;stroke:#263238;stroke-linecap:round;stroke-linejoin:round;stroke-miterlimit:10;" d="M206.17,375.076
				c-0.343,0-0.682,0.022-1.022,0.045c-0.34-0.022-0.679-0.045-1.022-0.045c-14.63,0-26.49,20.509-26.49,45.807
				c0,25.299,11.86,45.807,26.49,45.807c0.343,0,0.682-0.022,1.022-0.045c0.34,0.022,0.679,0.045,1.022,0.045
				c14.63,0,26.49-20.509,26.49-45.807C232.661,395.584,220.801,375.076,206.17,375.076z M214.97,452.88l-5.49-22.33
				c0.112-0.115,0.226-0.226,0.333-0.352l9.626,16.646C218.115,449.18,216.612,451.212,214.97,452.88z M219.967,395.879
				l-9.546,16.507c-0.217-0.325-0.445-0.628-0.686-0.901l5.265-22.569C216.852,390.803,218.527,393.152,219.967,395.879z
				 M185.798,409.277l13.966,9.742c-0.037,0.382-0.062,0.769-0.076,1.163h-14.956C184.773,416.379,185.143,412.717,185.798,409.277z
				 M199.845,423.453c0.055,0.405,0.123,0.8,0.202,1.187l-13.768,10.121c-0.825-3.532-1.344-7.333-1.501-11.308H199.845z
				 M212.496,423.453h13.023c-0.128,3.217-0.492,6.32-1.064,9.26l-12.085-8.43C212.419,424.012,212.458,423.733,212.496,423.453z
				 M212.653,420.181c-0.014-0.404-0.04-0.803-0.079-1.194l12.079-8.879c0.561,3.197,0.875,6.576,0.912,10.074H212.653z
				 M224.02,407.017l-12.036,8.848c-0.099-0.341-0.206-0.673-0.324-0.993l9.524-16.469
				C222.34,401.023,223.297,403.916,224.02,407.017z M208.018,410.105c-0.249-0.128-0.505-0.224-0.766-0.299v-25.616
				c2.143,0.541,4.182,1.628,6.07,3.18L208.018,410.105z M202.063,412.168l-10.582-18.299c1.58-2.57,3.381-4.735,5.355-6.388
				l5.874,23.892C202.486,411.619,202.268,411.879,202.063,412.168z M200.784,414.583c-0.164,0.417-0.305,0.86-0.436,1.315
				l-13.881-9.683c0.918-3.682,2.171-7.053,3.692-10.004L200.784,414.583z M187.066,437.738l13.872-10.198
				c0.101,0.238,0.207,0.47,0.318,0.693l-10.576,18.289C189.242,443.926,188.022,440.97,187.066,437.738z M202.695,430.375
				c0.156,0.172,0.316,0.334,0.482,0.483l-5.6,24.008c-2.026-1.534-3.887-3.594-5.528-6.08L202.695,430.375z M207.252,431.959
				c0.161-0.047,0.32-0.104,0.477-0.171l5.563,22.63c-1.88,1.539-3.909,2.619-6.041,3.157V431.959z M211.21,427.985
				c0.115-0.243,0.223-0.495,0.326-0.755l12.237,8.536c-0.794,3.129-1.827,6.036-3.065,8.642L211.21,427.985z M205.359,383.858
				v25.876c-0.314,0.068-0.62,0.176-0.918,0.318l-5.866-23.859c2.059-1.349,4.267-2.169,6.573-2.356
				C205.219,383.843,205.289,383.851,205.359,383.858z M199.342,456.041l5.625-24.114c0.129,0.042,0.26,0.075,0.392,0.104v25.876
				c-0.07,0.007-0.141,0.015-0.211,0.02C203.126,457.763,201.18,457.108,199.342,456.041z"/>
			<path style="fill:#263238;stroke:#263238;stroke-linecap:round;stroke-linejoin:round;stroke-miterlimit:10;" d="M150.52,375.076
				c-0.343,0-0.682,0.022-1.022,0.045c-0.34-0.022-0.679-0.045-1.022-0.045c-14.63,0-26.49,20.509-26.49,45.807
				c0,25.299,11.86,45.807,26.49,45.807c0.343,0,0.682-0.022,1.022-0.045c0.34,0.022,0.679,0.045,1.022,0.045
				c14.63,0,26.49-20.509,26.49-45.807C177.01,395.584,165.15,375.076,150.52,375.076z M159.319,452.88l-5.49-22.33
				c0.112-0.115,0.226-0.226,0.333-0.352l9.626,16.646C162.464,449.18,160.961,451.212,159.319,452.88z M164.317,395.879
				l-9.546,16.507c-0.217-0.325-0.445-0.628-0.686-0.901l5.265-22.569C161.201,390.803,162.876,393.152,164.317,395.879z
				 M130.148,409.277l13.966,9.742c-0.037,0.382-0.062,0.769-0.076,1.163h-14.956C129.122,416.379,129.493,412.717,130.148,409.277z
				 M144.194,423.453c0.055,0.405,0.123,0.8,0.202,1.187l-13.768,10.121c-0.825-3.532-1.344-7.333-1.501-11.308H144.194z
				 M156.845,423.453h13.023c-0.128,3.217-0.492,6.32-1.064,9.26l-12.085-8.43C156.768,424.012,156.807,423.733,156.845,423.453z
				 M157.002,420.181c-0.014-0.404-0.04-0.803-0.079-1.194l12.079-8.879c0.561,3.197,0.875,6.576,0.912,10.074H157.002z
				 M156.333,415.866c-0.099-0.341-0.206-0.673-0.324-0.993l9.524-16.469c1.156,2.619,2.113,5.513,2.837,8.614L156.333,415.866z
				 M152.367,410.105c-0.249-0.128-0.505-0.224-0.766-0.299v-25.616c2.143,0.541,4.182,1.628,6.07,3.18L152.367,410.105z
				 M146.412,412.168l-10.582-18.299c1.58-2.57,3.382-4.735,5.355-6.388l5.874,23.893
				C146.835,411.619,146.617,411.879,146.412,412.168z M145.133,414.583c-0.164,0.417-0.305,0.86-0.436,1.315l-13.881-9.683
				c0.918-3.682,2.171-7.053,3.692-10.004L145.133,414.583z M131.415,437.738l13.872-10.198c0.101,0.238,0.207,0.47,0.318,0.693
				l-10.577,18.289C133.592,443.926,132.371,440.97,131.415,437.738z M147.044,430.375c0.157,0.172,0.316,0.335,0.482,0.483
				l-5.601,24.008c-2.026-1.534-3.887-3.594-5.528-6.08L147.044,430.375z M151.601,431.959c0.161-0.047,0.32-0.104,0.477-0.171
				l5.564,22.63c-1.88,1.539-3.909,2.619-6.041,3.157V431.959z M155.559,427.985c0.115-0.243,0.223-0.495,0.326-0.755l12.237,8.536
				c-0.794,3.129-1.827,6.036-3.065,8.642L155.559,427.985z M149.709,383.858v25.876c-0.314,0.068-0.62,0.176-0.918,0.318
				l-5.866-23.859c2.059-1.349,4.267-2.169,6.573-2.356C149.568,383.843,149.638,383.851,149.709,383.858z M143.691,456.041
				l5.626-24.114c0.129,0.042,0.26,0.075,0.392,0.104v25.876c-0.07,0.007-0.14,0.015-0.211,0.02
				C147.475,457.763,145.529,457.108,143.691,456.041z"/>
		</g>
		<g>
			<path style="fill:#263238;stroke:#263238;stroke-linecap:round;stroke-linejoin:round;stroke-miterlimit:10;" d="M330.595,412.91
				L330.595,412.91l-7.3,0c-6.941,0-12.568,9.73-12.568,21.733c0,12.003,5.627,21.733,12.568,21.733h7.3
				c6.941,0,12.568-9.73,12.568-21.733C343.163,422.64,337.536,412.91,330.595,412.91z"/>
			<path style="fill:#263238;stroke:#263238;stroke-linecap:round;stroke-linejoin:round;stroke-miterlimit:10;" d="
				M355.101,434.643c0-10.755-3.067-20.265-7.768-26.078v-5.969h-10.765c-10.235,0-18.533,14.348-18.533,32.047
				c0,17.699,8.297,32.047,18.533,32.047h10.765v-5.969C352.034,454.909,355.101,445.398,355.101,434.643z"/>
			<path style="fill:#666666;stroke:#263238;stroke-linecap:round;stroke-linejoin:round;stroke-miterlimit:10;" d="
				M347.333,402.596c-10.235,0-18.533,14.348-18.533,32.047c0,17.699,8.297,32.047,18.533,32.047
				c10.235,0,18.533-14.348,18.533-32.047C365.866,416.944,357.568,402.596,347.333,402.596z"/>
			<path style="fill:#263238;stroke:#263238;stroke-linecap:round;stroke-linejoin:round;stroke-miterlimit:10;" d="
				M360.291,434.643c0-7.294-2.08-13.743-5.268-17.685v-4.048h-7.3c-6.941,0-12.568,9.73-12.568,21.733
				c0,12.003,5.627,21.733,12.568,21.733h7.3v-4.048C358.211,448.386,360.291,441.937,360.291,434.643z"/>
			<path style="fill:#666666;stroke:#263238;stroke-linecap:round;stroke-linejoin:round;stroke-miterlimit:10;" d="M355.023,412.91
				c-6.941,0-12.568,9.73-12.568,21.733c0,12.003,5.627,21.733,12.568,21.733s12.568-9.73,12.568-21.733
				C367.591,422.64,361.965,412.91,355.023,412.91z"/>
		</g>
		<g>
			
				<rect x="290.793" y="381.152" style="fill:#666666;stroke:#263238;stroke-linecap:round;stroke-linejoin:round;stroke-miterlimit:10;" width="1.892" height="81.331"/>
			<polygon style="fill:#666666;stroke:#263238;stroke-linecap:round;stroke-linejoin:round;stroke-miterlimit:10;" points="
				309.037,449.415 307.699,451.729 274.441,394.219 275.779,391.906 			"/>
			<polygon style="fill:#666666;stroke:#263238;stroke-linecap:round;stroke-linejoin:round;stroke-miterlimit:10;" points="
				301.81,458.602 300.069,459.882 281.668,385.033 283.409,383.753 			"/>
			
				<rect x="290.103" y="398.301" transform="matrix(6.123234e-17 -1 1 6.123234e-17 -130.0787 713.5562)" style="fill:#666666;stroke:#263238;stroke-linecap:round;stroke-linejoin:round;stroke-miterlimit:10;" width="3.272" height="47.034"/>
			<polygon style="fill:#666666;stroke:#263238;stroke-linecap:round;stroke-linejoin:round;stroke-miterlimit:10;" points="
				313.902,435.513 313.194,438.548 269.576,408.121 270.284,405.087 			"/>
			<polygon style="fill:#666666;stroke:#263238;stroke-linecap:round;stroke-linejoin:round;stroke-miterlimit:10;" points="
				307.699,391.906 309.037,394.219 275.779,451.729 274.441,449.415 			"/>
			<polygon style="fill:#666666;stroke:#263238;stroke-linecap:round;stroke-linejoin:round;stroke-miterlimit:10;" points="
				313.011,404.402 313.751,407.413 270.467,439.233 269.726,436.221 			"/>
			
				<rect x="290.793" y="381.152" transform="matrix(-1 -1.224647e-16 1.224647e-16 -1 583.4776 843.6349)" style="fill:#666666;stroke:#263238;stroke-linecap:round;stroke-linejoin:round;stroke-miterlimit:10;" width="1.892" height="81.331"/>
			<polygon style="fill:#666666;stroke:#263238;stroke-linecap:round;stroke-linejoin:round;stroke-miterlimit:10;" points="
				299.659,383.493 301.414,384.717 283.818,460.142 282.064,458.918 			"/>
			
				<ellipse style="fill:#666666;stroke:#263238;stroke-linecap:round;stroke-linejoin:round;stroke-miterlimit:10;" cx="291.604" cy="420.883" rx="6.503" ry="11.245"/>
			
				<ellipse style="fill:#666666;stroke:#263238;stroke-linecap:round;stroke-linejoin:round;stroke-miterlimit:10;" cx="291.604" cy="420.883" rx="3.054" ry="5.282"/>
			<path style="fill:#263238;stroke:#263238;stroke-linecap:round;stroke-linejoin:round;stroke-miterlimit:10;" d="M289.56,375.076
				c-14.63,0-26.49,20.509-26.49,45.807c0,25.299,11.86,45.807,26.49,45.807c14.63,0,26.49-20.508,26.49-45.807
				C316.05,395.584,304.19,375.076,289.56,375.076z M289.56,457.972c-11.846,0-21.449-16.606-21.449-37.09
				c0-20.484,9.603-37.09,21.449-37.09c11.846,0,21.449,16.606,21.449,37.09C311.009,441.367,301.406,457.972,289.56,457.972z"/>
			<path style="fill:#666666;stroke:#263238;stroke-linecap:round;stroke-linejoin:round;stroke-miterlimit:10;" d="
				M291.604,375.076c-14.63,0-26.49,20.509-26.49,45.807c0,25.299,11.86,45.807,26.49,45.807c14.63,0,26.49-20.508,26.49-45.807
				C318.094,395.584,306.234,375.076,291.604,375.076z M291.604,457.972c-11.846,0-21.449-16.606-21.449-37.09
				c0-20.484,9.603-37.09,21.449-37.09c11.846,0,21.449,16.606,21.449,37.09C313.053,441.367,303.449,457.972,291.604,457.972z"/>
		</g>
		<g>
			<path style="fill:#263238;stroke:#263238;stroke-linecap:round;stroke-linejoin:round;stroke-miterlimit:10;" d="M621.28,427.052
				L621.28,427.052h-5.38c-5.116,0-9.263,7.171-9.263,16.018c0,8.846,4.147,16.018,9.263,16.018h5.38
				c5.116,0,9.263-7.171,9.263-16.018C630.543,434.224,626.395,427.052,621.28,427.052z"/>
			<path style="fill:#263238;stroke:#263238;stroke-linecap:round;stroke-linejoin:round;stroke-miterlimit:10;" d="M639.342,443.07
				c0-7.927-2.26-14.936-5.725-19.22v-4.399h-7.934c-7.544,0-13.659,10.575-13.659,23.619c0,13.045,6.115,23.619,13.659,23.619
				h7.934v-4.399C637.081,458.007,639.342,450.997,639.342,443.07z"/>
			<path style="fill:#666666;stroke:#263238;stroke-linecap:round;stroke-linejoin:round;stroke-miterlimit:10;" d="
				M633.616,419.451c-7.544,0-13.659,10.575-13.659,23.619c0,13.045,6.115,23.619,13.659,23.619s13.659-10.575,13.659-23.619
				C647.276,430.026,641.16,419.451,633.616,419.451z"/>
			<path style="fill:#263238;stroke:#263238;stroke-linecap:round;stroke-linejoin:round;stroke-miterlimit:10;" d="M643.167,443.07
				c0-5.376-1.533-10.129-3.882-13.034v-2.983h-5.381c-5.116,0-9.263,7.171-9.263,16.018c0,8.846,4.147,16.018,9.263,16.018h5.381
				v-2.983C641.634,453.199,643.167,448.446,643.167,443.07z"/>
			<path style="fill:#666666;stroke:#263238;stroke-linecap:round;stroke-linejoin:round;stroke-miterlimit:10;" d="
				M639.284,427.052c-5.116,0-9.263,7.171-9.263,16.018c0,8.846,4.147,16.018,9.263,16.018c5.116,0,9.263-7.171,9.263-16.018
				C648.547,434.224,644.4,427.052,639.284,427.052z"/>
		</g>
		<g>
			<path style="fill:#263238;stroke:#263238;stroke-linecap:round;stroke-linejoin:round;stroke-miterlimit:10;" d="
				M455.359,427.052L455.359,427.052h-5.38c-5.116,0-9.263,7.171-9.263,16.018c0,8.846,4.147,16.018,9.263,16.018h5.38
				c5.116,0,9.263-7.171,9.263-16.018C464.622,434.224,460.475,427.052,455.359,427.052z"/>
			<path style="fill:#263238;stroke:#263238;stroke-linecap:round;stroke-linejoin:round;stroke-miterlimit:10;" d="M473.421,443.07
				c0-7.927-2.26-14.936-5.725-19.22v-4.399h-7.934c-7.544,0-13.659,10.575-13.659,23.619c0,13.045,6.115,23.619,13.659,23.619
				h7.934v-4.399C471.16,458.007,473.421,450.997,473.421,443.07z"/>
			<path style="fill:#666666;stroke:#263238;stroke-linecap:round;stroke-linejoin:round;stroke-miterlimit:10;" d="
				M467.696,419.451c-7.544,0-13.659,10.575-13.659,23.619c0,13.045,6.115,23.619,13.659,23.619s13.659-10.575,13.659-23.619
				C481.355,430.026,475.24,419.451,467.696,419.451z"/>
			<path style="fill:#263238;stroke:#263238;stroke-linecap:round;stroke-linejoin:round;stroke-miterlimit:10;" d="M477.246,443.07
				c0-5.376-1.533-10.129-3.883-13.034v-2.983h-5.38c-5.116,0-9.263,7.171-9.263,16.018c0,8.846,4.147,16.018,9.263,16.018h5.38
				v-2.983C475.713,453.199,477.246,448.446,477.246,443.07z"/>
			<path style="fill:#666666;stroke:#263238;stroke-linecap:round;stroke-linejoin:round;stroke-miterlimit:10;" d="
				M473.364,427.052c-5.116,0-9.263,7.171-9.263,16.018c0,8.846,4.147,16.018,9.263,16.018c5.116,0,9.263-7.171,9.263-16.018
				C482.627,434.224,478.48,427.052,473.364,427.052z"/>
		</g>
		<g>
			<path style="fill:#666666;stroke:#263238;stroke-linecap:round;stroke-linejoin:round;stroke-miterlimit:10;" d="M465.316,423.85
				h-20.806c-1.314,0-2.379-1.065-2.379-2.38l0,0c0-1.314,1.065-2.379,2.379-2.379h20.806c1.314,0,2.379,1.065,2.379,2.379l0,0
				C467.696,422.784,466.63,423.85,465.316,423.85z"/>
			<path style="fill:#666666;stroke:#263238;stroke-linecap:round;stroke-linejoin:round;stroke-miterlimit:10;" d="
				M461.535,419.034h-13.243c-1.314,0-2.379-1.065-2.379-2.38l0,0c0-1.314,1.065-2.379,2.379-2.379h13.243
				c1.314,0,2.38,1.065,2.38,2.379l0,0C463.914,417.969,462.849,419.034,461.535,419.034z"/>
			<path style="fill:#666666;stroke:#263238;stroke-linecap:round;stroke-linejoin:round;stroke-miterlimit:10;" d="
				M465.316,428.295h-20.806c-1.314,0-2.379-1.065-2.379-2.379l0,0c0-1.314,1.065-2.379,2.379-2.379h20.806
				c1.314,0,2.379,1.065,2.379,2.379l0,0C467.696,427.23,466.63,428.295,465.316,428.295z"/>
		</g>
		<g>
			<path style="fill:#666666;stroke:#263238;stroke-linecap:round;stroke-linejoin:round;stroke-miterlimit:10;" d="M431.121,423.85
				h-20.806c-1.314,0-2.379-1.065-2.379-2.38l0,0c0-1.314,1.065-2.379,2.379-2.379h20.806c1.314,0,2.379,1.065,2.379,2.379l0,0
				C433.501,422.784,432.435,423.85,431.121,423.85z"/>
			<path style="fill:#666666;stroke:#263238;stroke-linecap:round;stroke-linejoin:round;stroke-miterlimit:10;" d="M427.34,419.034
				h-13.243c-1.314,0-2.379-1.065-2.379-2.38l0,0c0-1.314,1.065-2.379,2.379-2.379h13.243c1.314,0,2.38,1.065,2.38,2.379l0,0
				C429.719,417.969,428.654,419.034,427.34,419.034z"/>
			<path style="fill:#666666;stroke:#263238;stroke-linecap:round;stroke-linejoin:round;stroke-miterlimit:10;" d="
				M431.121,428.295h-20.806c-1.314,0-2.379-1.065-2.379-2.379l0,0c0-1.314,1.065-2.379,2.379-2.379h20.806
				c1.314,0,2.379,1.065,2.379,2.379l0,0C433.501,427.23,432.435,428.295,431.121,428.295z"/>
		</g>
		<path style="fill:#666666;stroke:#263238;stroke-linecap:round;stroke-linejoin:round;stroke-miterlimit:10;" d="M437.279,430.459
			L437.279,430.459c-1.531,0-2.773-1.241-2.773-2.773v-18.715c0-1.531,1.241-2.773,2.773-2.773h0c1.531,0,2.772,1.241,2.772,2.773
			v18.715C440.052,429.217,438.81,430.459,437.279,430.459z"/>
		<g>
			<path style="fill:#666666;stroke:#263238;stroke-linecap:round;stroke-linejoin:round;stroke-miterlimit:10;" d="M626.588,423.85
				h-20.806c-1.314,0-2.379-1.065-2.379-2.38l0,0c0-1.314,1.065-2.379,2.379-2.379h20.806c1.314,0,2.379,1.065,2.379,2.379l0,0
				C628.967,422.784,627.902,423.85,626.588,423.85z"/>
			<path style="fill:#666666;stroke:#263238;stroke-linecap:round;stroke-linejoin:round;stroke-miterlimit:10;" d="
				M622.806,419.034h-13.243c-1.314,0-2.38-1.065-2.38-2.38l0,0c0-1.314,1.065-2.379,2.38-2.379h13.243
				c1.314,0,2.379,1.065,2.379,2.379l0,0C625.186,417.969,624.12,419.034,622.806,419.034z"/>
			<path style="fill:#666666;stroke:#263238;stroke-linecap:round;stroke-linejoin:round;stroke-miterlimit:10;" d="
				M626.588,428.295h-20.806c-1.314,0-2.379-1.065-2.379-2.379l0,0c0-1.314,1.065-2.379,2.379-2.379h20.806
				c1.314,0,2.379,1.065,2.379,2.379l0,0C628.967,427.23,627.902,428.295,626.588,428.295z"/>
		</g>
		<g>
			<path style="fill:#263238;stroke:#263238;stroke-linecap:round;stroke-linejoin:round;stroke-miterlimit:10;" d="
				M566.335,427.052L566.335,427.052h-5.38c-5.116,0-9.263,7.171-9.263,16.018c0,8.846,4.147,16.018,9.263,16.018h5.38
				c5.116,0,9.263-7.171,9.263-16.018C575.598,434.224,571.451,427.052,566.335,427.052z"/>
			<path style="fill:#263238;stroke:#263238;stroke-linecap:round;stroke-linejoin:round;stroke-miterlimit:10;" d="M584.397,443.07
				c0-7.927-2.26-14.936-5.725-19.22v-4.399h-7.934c-7.544,0-13.659,10.575-13.659,23.619c0,13.045,6.115,23.619,13.659,23.619
				h7.934v-4.399C582.136,458.007,584.397,450.997,584.397,443.07z"/>
			<path style="fill:#666666;stroke:#263238;stroke-linecap:round;stroke-linejoin:round;stroke-miterlimit:10;" d="
				M578.672,419.451c-7.544,0-13.659,10.575-13.659,23.619c0,13.045,6.115,23.619,13.659,23.619s13.659-10.575,13.659-23.619
				C592.331,430.026,586.215,419.451,578.672,419.451z"/>
			<path style="fill:#263238;stroke:#263238;stroke-linecap:round;stroke-linejoin:round;stroke-miterlimit:10;" d="M588.222,443.07
				c0-5.376-1.533-10.129-3.883-13.034v-2.983h-5.38c-5.116,0-9.263,7.171-9.263,16.018c0,8.846,4.147,16.018,9.263,16.018h5.38
				v-2.983C586.689,453.199,588.222,448.446,588.222,443.07z"/>
			<path style="fill:#666666;stroke:#263238;stroke-linecap:round;stroke-linejoin:round;stroke-miterlimit:10;" d="M584.34,427.052
				c-5.116,0-9.263,7.171-9.263,16.018c0,8.846,4.147,16.018,9.263,16.018c5.116,0,9.263-7.171,9.263-16.018
				C593.603,434.224,589.455,427.052,584.34,427.052z"/>
		</g>
		<g>
			<path style="fill:#666666;stroke:#263238;stroke-linecap:round;stroke-linejoin:round;stroke-miterlimit:10;" d="M592.393,423.85
				h-20.806c-1.314,0-2.379-1.065-2.379-2.38l0,0c0-1.314,1.065-2.379,2.379-2.379h20.806c1.314,0,2.379,1.065,2.379,2.379l0,0
				C594.772,422.784,593.707,423.85,592.393,423.85z"/>
			<path style="fill:#666666;stroke:#263238;stroke-linecap:round;stroke-linejoin:round;stroke-miterlimit:10;" d="
				M588.611,419.034h-13.242c-1.314,0-2.38-1.065-2.38-2.38l0,0c0-1.314,1.065-2.379,2.38-2.379h13.242
				c1.314,0,2.379,1.065,2.379,2.379l0,0C590.991,417.969,589.925,419.034,588.611,419.034z"/>
			<path style="fill:#666666;stroke:#263238;stroke-linecap:round;stroke-linejoin:round;stroke-miterlimit:10;" d="
				M592.393,428.295h-20.806c-1.314,0-2.379-1.065-2.379-2.379l0,0c0-1.314,1.065-2.379,2.379-2.379h20.806
				c1.314,0,2.379,1.065,2.379,2.379l0,0C594.772,427.23,593.707,428.295,592.393,428.295z"/>
		</g>
		<path style="fill:#666666;stroke:#263238;stroke-linecap:round;stroke-linejoin:round;stroke-miterlimit:10;" d="M598.551,430.459
			L598.551,430.459c-1.531,0-2.773-1.241-2.773-2.773v-18.715c0-1.531,1.241-2.773,2.773-2.773l0,0c1.531,0,2.773,1.241,2.773,2.773
			v18.715C601.323,429.217,600.082,430.459,598.551,430.459z"/>
		<g>
			
				<rect x="235.142" y="381.152" style="fill:#666666;stroke:#263238;stroke-linecap:round;stroke-linejoin:round;stroke-miterlimit:10;" width="1.892" height="81.331"/>
			<polygon style="fill:#666666;stroke:#263238;stroke-linecap:round;stroke-linejoin:round;stroke-miterlimit:10;" points="
				253.386,449.415 252.048,451.729 218.79,394.219 220.128,391.906 			"/>
			<polygon style="fill:#666666;stroke:#263238;stroke-linecap:round;stroke-linejoin:round;stroke-miterlimit:10;" points="
				246.159,458.602 244.418,459.882 226.017,385.033 227.758,383.753 			"/>
			
				<rect x="234.452" y="398.301" transform="matrix(6.123234e-17 -1 1 6.123234e-17 -185.7294 657.9055)" style="fill:#666666;stroke:#263238;stroke-linecap:round;stroke-linejoin:round;stroke-miterlimit:10;" width="3.272" height="47.034"/>
			<polygon style="fill:#666666;stroke:#263238;stroke-linecap:round;stroke-linejoin:round;stroke-miterlimit:10;" points="
				258.251,435.513 257.543,438.548 213.925,408.121 214.633,405.087 			"/>
			<polygon style="fill:#666666;stroke:#263238;stroke-linecap:round;stroke-linejoin:round;stroke-miterlimit:10;" points="
				252.048,391.906 253.386,394.219 220.128,451.729 218.79,449.415 			"/>
			<polygon style="fill:#666666;stroke:#263238;stroke-linecap:round;stroke-linejoin:round;stroke-miterlimit:10;" points="
				257.36,404.402 258.1,407.413 214.816,439.233 214.076,436.221 			"/>
			
				<rect x="235.142" y="381.152" transform="matrix(-1 -1.224647e-16 1.224647e-16 -1 472.176 843.6349)" style="fill:#666666;stroke:#263238;stroke-linecap:round;stroke-linejoin:round;stroke-miterlimit:10;" width="1.892" height="81.331"/>
			<polygon style="fill:#666666;stroke:#263238;stroke-linecap:round;stroke-linejoin:round;stroke-miterlimit:10;" points="
				244.008,383.493 245.763,384.717 228.168,460.142 226.413,458.918 			"/>
			
				<ellipse style="fill:#666666;stroke:#263238;stroke-linecap:round;stroke-linejoin:round;stroke-miterlimit:10;" cx="235.953" cy="420.883" rx="6.503" ry="11.245"/>
			
				<ellipse style="fill:#666666;stroke:#263238;stroke-linecap:round;stroke-linejoin:round;stroke-miterlimit:10;" cx="235.953" cy="420.883" rx="3.054" ry="5.282"/>
			<path style="fill:#263238;stroke:#263238;stroke-linecap:round;stroke-linejoin:round;stroke-miterlimit:10;" d="
				M233.909,375.076c-14.63,0-26.49,20.509-26.49,45.807c0,25.299,11.86,45.807,26.49,45.807c14.63,0,26.49-20.508,26.49-45.807
				C260.399,395.584,248.539,375.076,233.909,375.076z M233.909,457.972c-11.846,0-21.449-16.606-21.449-37.09
				c0-20.484,9.603-37.09,21.449-37.09c11.846,0,21.449,16.606,21.449,37.09C255.358,441.367,245.755,457.972,233.909,457.972z"/>
			<path style="fill:#666666;stroke:#263238;stroke-linecap:round;stroke-linejoin:round;stroke-miterlimit:10;" d="
				M235.953,375.076c-14.63,0-26.49,20.509-26.49,45.807c0,25.299,11.86,45.807,26.49,45.807c14.63,0,26.49-20.508,26.49-45.807
				C262.443,395.584,250.583,375.076,235.953,375.076z M235.953,457.972c-11.846,0-21.449-16.606-21.449-37.09
				c0-20.484,9.603-37.09,21.449-37.09c11.846,0,21.449,16.606,21.449,37.09C257.402,441.367,247.799,457.972,235.953,457.972z"/>
		</g>
		<g>
			<path style="fill:#92E3A9;stroke:#263238;stroke-linecap:round;stroke-linejoin:round;stroke-miterlimit:10;" d="
				M637.112,233.427H350.441c-12.536,0-22.698,10.162-22.698,22.698V389.71H659.81V256.125
				C659.81,243.589,649.648,233.427,637.112,233.427z"/>
			
				<rect x="408.699" y="338.426" style="fill:none;stroke:#263238;stroke-linecap:round;stroke-linejoin:round;stroke-miterlimit:10;" width="236.243" height="41.804"/>
			<path style="fill:#A6A6A6;stroke:#263238;stroke-linecap:round;stroke-linejoin:round;stroke-miterlimit:10;" d="M659.63,255.765
				c-1.661-12.557-14.81-22.338-30.79-22.338H358.714c-15.98,0-29.129,9.781-30.79,22.338H659.63z"/>
			<g>
				<g>
					<path style="fill:#A6A6A6;stroke:#263238;stroke-linecap:round;stroke-linejoin:round;stroke-miterlimit:10;" d="
						M449.146,326.443H429.56c-2.13,0-3.858-1.727-3.858-3.858v-56.033h27.3v56.033
						C453.003,324.716,451.276,326.443,449.146,326.443z"/>
					
						<rect x="434.964" y="266.552" style="fill:#263238;stroke:#263238;stroke-linecap:round;stroke-linejoin:round;stroke-miterlimit:10;" width="8.779" height="11.991"/>
					
						<rect x="425.703" y="277.716" style="fill:#FFFFFF;stroke:#263238;stroke-linecap:round;stroke-linejoin:round;stroke-miterlimit:10;" width="27.3" height="4.189"/>
				</g>
				<g>
					<path style="fill:#263238;stroke:#263238;stroke-linecap:round;stroke-linejoin:round;stroke-miterlimit:10;" d="
						M413.291,326.443h-5.935c-2.13,0-3.858-1.727-3.858-3.858v-56.033h13.65v56.033
						C417.148,324.716,415.421,326.443,413.291,326.443z"/>
					
						<rect x="403.498" y="277.716" style="fill:#FFFFFF;stroke:#263238;stroke-linecap:round;stroke-linejoin:round;stroke-miterlimit:10;" width="13.65" height="4.189"/>
				</g>
				<g>
					<path style="fill:#A6A6A6;stroke:#263238;stroke-linecap:round;stroke-linejoin:round;stroke-miterlimit:10;" d="
						M488.756,326.443h-19.585c-2.13,0-3.858-1.727-3.858-3.858v-56.033h27.3v56.033
						C492.614,324.716,490.887,326.443,488.756,326.443z"/>
					
						<rect x="474.574" y="266.552" style="fill:#263238;stroke:#263238;stroke-linecap:round;stroke-linejoin:round;stroke-miterlimit:10;" width="8.779" height="11.991"/>
					
						<rect x="465.313" y="277.716" style="fill:#FFFFFF;stroke:#263238;stroke-linecap:round;stroke-linejoin:round;stroke-miterlimit:10;" width="27.3" height="4.189"/>
				</g>
				<g>
					<path style="fill:#A6A6A6;stroke:#263238;stroke-linecap:round;stroke-linejoin:round;stroke-miterlimit:10;" d="
						M528.367,326.443h-19.585c-2.13,0-3.857-1.727-3.857-3.858v-56.033h27.3v56.033
						C532.224,324.716,530.497,326.443,528.367,326.443z"/>
					
						<rect x="514.185" y="266.552" style="fill:#263238;stroke:#263238;stroke-linecap:round;stroke-linejoin:round;stroke-miterlimit:10;" width="8.779" height="11.991"/>
					
						<rect x="504.924" y="277.716" style="fill:#FFFFFF;stroke:#263238;stroke-linecap:round;stroke-linejoin:round;stroke-miterlimit:10;" width="27.3" height="4.189"/>
				</g>
				<g>
					<path style="fill:#A6A6A6;stroke:#263238;stroke-linecap:round;stroke-linejoin:round;stroke-miterlimit:10;" d="
						M567.977,326.443h-19.585c-2.13,0-3.858-1.727-3.858-3.858v-56.033h27.3v56.033
						C571.835,324.716,570.108,326.443,567.977,326.443z"/>
					
						<rect x="553.795" y="266.552" style="fill:#263238;stroke:#263238;stroke-linecap:round;stroke-linejoin:round;stroke-miterlimit:10;" width="8.779" height="11.991"/>
					
						<rect x="544.535" y="277.716" style="fill:#FFFFFF;stroke:#263238;stroke-linecap:round;stroke-linejoin:round;stroke-miterlimit:10;" width="27.3" height="4.189"/>
				</g>
				<g>
					<path style="fill:#A6A6A6;stroke:#263238;stroke-linecap:round;stroke-linejoin:round;stroke-miterlimit:10;" d="
						M607.588,326.443h-19.585c-2.13,0-3.857-1.727-3.857-3.858v-56.033h27.3v56.033
						C611.446,324.716,609.719,326.443,607.588,326.443z"/>
					
						<rect x="593.406" y="266.552" style="fill:#263238;stroke:#263238;stroke-linecap:round;stroke-linejoin:round;stroke-miterlimit:10;" width="8.779" height="11.991"/>
					
						<rect x="584.145" y="277.716" style="fill:#FFFFFF;stroke:#263238;stroke-linecap:round;stroke-linejoin:round;stroke-miterlimit:10;" width="27.3" height="4.189"/>
				</g>
				<g>
					<path style="fill:#A6A6A6;stroke:#263238;stroke-linecap:round;stroke-linejoin:round;stroke-miterlimit:10;" d="
						M647.199,326.443h-19.585c-2.13,0-3.858-1.727-3.858-3.858v-56.033h27.3v56.033
						C651.056,324.716,649.329,326.443,647.199,326.443z"/>
					
						<rect x="633.017" y="266.552" style="fill:#263238;stroke:#263238;stroke-linecap:round;stroke-linejoin:round;stroke-miterlimit:10;" width="8.779" height="11.991"/>
					
						<rect x="623.756" y="277.716" style="fill:#FFFFFF;stroke:#263238;stroke-linecap:round;stroke-linejoin:round;stroke-miterlimit:10;" width="27.3" height="4.189"/>
				</g>
			</g>
		</g>
		<g>
			<path style="fill:#263238;stroke:#263238;stroke-linecap:round;stroke-linejoin:round;stroke-miterlimit:10;" d="
				M373.791,233.427h-81.865c-12.536,0-22.698,10.162-22.698,22.698V389.71h127.261V256.125
				C396.489,243.589,386.326,233.427,373.791,233.427z"/>
			<path style="fill:#666666;stroke:#263238;stroke-linecap:round;stroke-linejoin:round;stroke-miterlimit:10;" d="
				M396.343,255.765c-1.342-12.557-11.969-22.338-24.883-22.338h-77.204c-12.914,0-23.54,9.781-24.883,22.338H396.343z"/>
		</g>
		<path style="fill:#263238;stroke:#263238;stroke-linecap:round;stroke-linejoin:round;stroke-miterlimit:10;" d="M310.819,241.819
			L310.819,241.819c-38.958-9.174-79.532-9.022-118.42,0.444h0v147.376h120.305v-145.44
			C312.703,243.064,311.923,242.079,310.819,241.819z"/>
		<path style="fill:#666666;stroke:#263238;stroke-linecap:round;stroke-linejoin:round;stroke-miterlimit:10;" d="M199.33,249.041
			c13.118-2.779,26.397-4.517,39.718-5.198v39.479H199.33V249.041z"/>
		<path style="fill:#92E3A9;stroke:#263238;stroke-linecap:round;stroke-linejoin:round;stroke-miterlimit:10;" d="M245.435,285.574
			h-75.35c25.646,0,46.436,20.79,46.436,46.437c0,25.646-20.79,46.437-46.436,46.437h75.35c25.646,0,46.436-20.79,46.436-46.437
			C291.872,306.364,271.082,285.574,245.435,285.574z"/>
		
			<ellipse transform="matrix(0.2298 -0.9732 0.9732 0.2298 -208.0407 401.15)" style="fill:#666666;stroke:#263238;stroke-linecap:round;stroke-linejoin:round;stroke-miterlimit:10;" cx="149.417" cy="332.01" rx="46.437" ry="46.437"/>
		
			<ellipse transform="matrix(0.2204 -0.9754 0.9754 0.2204 -207.3594 404.5834)" style="fill:#263238;stroke:#263238;stroke-linecap:round;stroke-linejoin:round;stroke-miterlimit:10;" cx="149.417" cy="332.01" rx="42.505" ry="42.505"/>
		<path style="fill:#666666;stroke:#263238;stroke-linecap:round;stroke-linejoin:round;stroke-miterlimit:10;" d="M182.394,285.574
			h-32.977c25.646,0,46.437,20.79,46.437,46.437c0,25.646-20.79,46.437-46.437,46.437h32.977c25.646,0,46.437-20.79,46.437-46.437
			C228.83,306.364,208.04,285.574,182.394,285.574z"/>
		
			<rect x="183.88" y="366.793" style="fill:#666666;stroke:#263238;stroke-linecap:round;stroke-linejoin:round;stroke-miterlimit:10;" width="30.299" height="22.913"/>
		<path style="fill:#263238;stroke:#263238;stroke-linecap:round;stroke-linejoin:round;stroke-miterlimit:10;" d="M149.417,379.928
			c-10.071,0-19.457-2.911-27.385-7.92v17.698h62.115v-22.913h-0.44C174.615,374.957,162.598,379.928,149.417,379.928z"/>
		
			<rect x="169.389" y="297.392" style="fill:#FFFFFF;stroke:#263238;stroke-linecap:round;stroke-linejoin:round;stroke-miterlimit:10;" width="2.819" height="0"/>
		
			<rect x="153.888" y="207.941" style="fill:#263238;stroke:#263238;stroke-linecap:round;stroke-linejoin:round;stroke-miterlimit:10;" width="25.366" height="77.707"/>
		<g>
			<path style="fill:#FFFFFF;stroke:#263238;stroke-linecap:round;stroke-linejoin:round;stroke-miterlimit:10;" d="
				M248.327,285.648h-27.909l0.497-2.163c2.041-8.882,3.033-17.973,2.955-27.086l-0.016-1.819h20.253l0,0
				c0,10.312,1.37,20.578,4.073,30.53L248.327,285.648z"/>
			
				<rect x="222.73" y="254.579" style="fill:#FFFFFF;stroke:#263238;stroke-linecap:round;stroke-linejoin:round;stroke-miterlimit:10;" width="22.503" height="3.352"/>
		</g>
		<path style="fill:#92E3A9;stroke:#263238;stroke-linecap:round;stroke-linejoin:round;stroke-miterlimit:10;" d="M215.255,233.999
			h-3.014c-8.108,0-14.681,6.573-14.681,14.681v36.967h32.377v-36.967C229.937,240.573,223.364,233.999,215.255,233.999z"/>
		
			<rect x="147.781" y="210.847" style="fill:#263238;stroke:#263238;stroke-linecap:round;stroke-linejoin:round;stroke-miterlimit:10;" width="37.579" height="3.053"/>
		<path style="fill:#263238;stroke:#263238;stroke-linecap:round;stroke-linejoin:round;stroke-miterlimit:10;" d="M147.781,213.9
			c0,0,6.197,3.841,6.197,9.147h24.842c0,0,2.226-8.165,6.54-9.147H147.781z"/>
		<g>
			<path style="fill:#263238;" d="M196.517,422.458H106.67c-7.37,0-13.367-5.996-13.367-13.367c0-1.218,0.987-2.205,2.205-2.205
				c1.218,0,2.205,0.987,2.205,2.205c0,4.938,4.018,8.956,8.956,8.956h89.847c4.938,0,8.955-4.018,8.955-8.956
				c0-1.218,0.988-2.205,2.205-2.205s2.205,0.987,2.205,2.205C209.883,416.462,203.887,422.458,196.517,422.458z"/>
		</g>
		
			<rect x="81.554" y="389.71" style="fill:#FFFFFF;stroke:#263238;stroke-linecap:round;stroke-linejoin:round;stroke-miterlimit:10;" width="150.61" height="20.23"/>
		<g>
			
				<circle style="fill:#FFFFFF;stroke:#263238;stroke-linecap:round;stroke-linejoin:round;stroke-miterlimit:10;" cx="211.789" cy="401.279" r="7.812"/>
			
				<circle style="fill:#263238;stroke:#263238;stroke-linecap:round;stroke-linejoin:round;stroke-miterlimit:10;" cx="207.143" cy="401.279" r="9.459"/>
		</g>
		<g>
			
				<circle style="fill:#FFFFFF;stroke:#263238;stroke-linecap:round;stroke-linejoin:round;stroke-miterlimit:10;" cx="95.509" cy="401.279" r="7.812"/>
			
				<circle style="fill:#263238;stroke:#263238;stroke-linecap:round;stroke-linejoin:round;stroke-miterlimit:10;" cx="90.862" cy="401.279" r="9.459"/>
		</g>
		
			<rect x="232.164" y="389.71" style="fill:#92E3A9;stroke:#263238;stroke-linecap:round;stroke-linejoin:round;stroke-miterlimit:10;" width="127.396" height="4.688"/>
		<path style="fill:#92E3A9;stroke:#263238;stroke-linecap:round;stroke-linejoin:round;stroke-miterlimit:10;" d="M353.204,293.548
			v-47.181c0-1.465-0.848-3.512-1.884-4.549h0c-25.762-6.066-52.229-8.028-78.45-5.942c12.743,1.022,25.43,2.994,37.949,5.942
			l1.534,1.534c0.224,0.224,0.35,0.528,0.35,0.845v65.628c0,7.171-5.813,12.984-12.984,12.984h-55.38v66.828h68.364h40.501h6.355
			v-89.735c0-1.755-1.423-3.178-3.177-3.178l0,0C354.627,296.726,353.204,295.303,353.204,293.548z"/>
		
			<rect x="288.147" y="344.259" style="fill:none;stroke:#263238;stroke-linecap:round;stroke-linejoin:round;stroke-miterlimit:10;" width="66.109" height="4.861"/>
		<path style="fill:#92E3A9;stroke:#263238;stroke-linecap:round;stroke-linejoin:round;stroke-miterlimit:10;" d="M310.819,241.819
			L310.819,241.819c0.333,0.079,0.632,0.229,0.894,0.424h40.502c-0.262-0.195-0.56-0.346-0.894-0.424h0
			c-25.774-6.069-52.253-8.038-78.484-5.944C285.59,236.896,298.288,238.868,310.819,241.819z"/>
		
			<rect x="244.339" y="322.81" style="fill:#263238;stroke:#263238;stroke-linecap:round;stroke-linejoin:round;stroke-miterlimit:10;" width="36.812" height="66.828"/>
		<path style="fill:#263238;stroke:#263238;stroke-linecap:round;stroke-linejoin:round;stroke-miterlimit:10;" d="M333.688,315.499
			h-2.3c-6.186,0-11.2-5.014-11.2-11.2v-39.886c0-6.186,5.014-11.2,11.2-11.2h2.3c6.186,0,11.2,5.014,11.2,11.2v39.886
			C344.888,310.484,339.874,315.499,333.688,315.499z"/>
		<path style="fill:#666666;stroke:#263238;stroke-linecap:round;stroke-linejoin:round;stroke-miterlimit:10;" d="M305.237,249.041
			c-13.118-2.779-26.397-4.517-39.718-5.198v39.479h39.718V249.041z"/>
		
			<rect x="127.333" y="390.055" style="fill:#FFFFFF;stroke:#263238;stroke-linecap:round;stroke-linejoin:round;stroke-miterlimit:10;" width="21.569" height="17.795"/>
		<path style="fill:#666666;stroke:#263238;stroke-linecap:round;stroke-linejoin:round;stroke-miterlimit:10;" d="M306.758,410.207
			h-53.14c-1.876,0-3.397-1.521-3.397-3.397v-0.698c0-1.876,1.521-3.397,3.397-3.397h53.14c1.876,0,3.397,1.521,3.397,3.397v0.698
			C310.155,408.686,308.634,410.207,306.758,410.207z"/>
		<path style="fill:#666666;stroke:#263238;stroke-linecap:round;stroke-linejoin:round;stroke-miterlimit:10;" d="M347.332,406.311
			l-30.43,33.294c-1.327,1.327-3.478,1.327-4.804,0l-0.493-0.493c-1.327-1.327-1.327-3.478,0-4.804l30.43-33.294
			c1.327-1.327,3.478-1.327,4.804,0l0.493,0.493C348.659,402.834,348.659,404.985,347.332,406.311z"/>
		<path style="fill:#666666;stroke:#263238;stroke-linecap:round;stroke-linejoin:round;stroke-miterlimit:10;" d="M583.575,405.224
			H400.811c-2.281,0-4.131-1.849-4.131-4.131v-0.848c0-2.281,1.85-4.131,4.131-4.131h182.764c2.281,0,4.131,1.849,4.131,4.131v0.848
			C587.706,403.374,585.857,405.224,583.575,405.224z"/>
		
			<rect x="135.085" y="313.797" style="fill:#FFFFFF;stroke:#263238;stroke-linecap:round;stroke-linejoin:round;stroke-miterlimit:10;" width="22.735" height="9.262"/>
		<g>
			
				<rect x="232.164" y="374.308" style="fill:#92E3A9;stroke:#263238;stroke-linecap:round;stroke-linejoin:round;stroke-miterlimit:10;" width="18.647" height="15.402"/>
			
				<rect x="245.529" y="374.308" style="fill:#92E3A9;stroke:#263238;stroke-linecap:round;stroke-linejoin:round;stroke-miterlimit:10;" width="18.647" height="15.402"/>
		</g>
		<g>
			<path style="fill:#666666;stroke:#263238;stroke-linecap:round;stroke-linejoin:round;stroke-miterlimit:10;" d="
				M540.597,428.117H500.76c-0.791,0-1.561-0.248-2.202-0.711l-24.648-17.788h-64.125c-2.067,0-3.743-1.662-3.743-3.713
				c0-2.051,1.675-3.713,3.743-3.713h65.343c0.791,0,1.561,0.248,2.202,0.711l24.648,17.788h37.344l21.672-16.564
				c0.654-0.5,1.458-0.772,2.284-0.772h65.309c2.067,0,3.743,1.662,3.743,3.713c0,2.051-1.675,3.713-3.743,3.713h-64.034
				l-21.672,16.564C542.227,427.846,541.423,428.117,540.597,428.117z"/>
		</g>
	</g>
</g>
<g id="Floor_1_">
	<g>
		<rect x="14.98" y="466.807" style="fill:#666666;" width="723.336" height="8.378"/>
		<rect x="14.98" y="474.68" style="fill:#92E3A9;" width="723.336" height="8.378"/>
	</g>
</g>
</svg>
